<svg height="300px" width="300px" fill="#ef5466" xmlns:dc="http://purl.org/dc/elements/1.1/" xmlns:cc="http://creativecommons.org/ns#" xmlns:rdf="http://www.w3.org/1999/02/22-rdf-syntax-ns#" xmlns:svg="http://www.w3.org/2000/svg" xmlns="http://www.w3.org/2000/svg" xmlns:sodipodi="http://sodipodi.sourceforge.net/DTD/sodipodi-0.dtd" xmlns:inkscape="http://www.inkscape.org/namespaces/inkscape" version="1.1" x="0px" y="0px" viewBox="0 0 100 100"><g transform="translate(0,-952.36218)"><path style="font-size:medium;font-style:normal;font-variant:normal;font-weight:normal;font-stretch:normal;text-indent:0;text-align:start;text-decoration:none;line-height:normal;letter-spacing:normal;word-spacing:normal;text-transform:none;direction:ltr;block-progression:tb;writing-mode:lr-tb;text-anchor:start;baseline-shift:baseline;opacity:1;color:#000000;fill:#ef5466;fill-opacity:1;stroke:none;stroke-width:4;marker:none;visibility:visible;display:inline;overflow:visible;enable-background:accumulate;font-family:Sans;-inkscape-font-specification:Sans" d="M 11.1875 19 C 8.3451316 19 6 21.34513 6 24.1875 L 6 63.8125 C 6 66.6548 8.3451316 69 11.1875 69 L 50 69 A 2.0002 2.0002 0 1 0 50 65 L 11.1875 65 C 10.514836 65 10 64.4851 10 63.8125 L 10 52.90625 L 31.96875 37.46875 L 51.78125 52.5625 A 2.0002 2.0002 0 0 0 54.28125 52.53125 L 63.875 44.6875 L 70.375 51.1875 C 65.462283 53.901902 62.125 59.112404 62.125 65.09375 C 62.125 73.85245 69.28513 81 78.0625 81 C 86.839873 81 94 73.85245 94 65.09375 C 94 56.33495 86.839873 49.1875 78.0625 49.1875 C 77.360721 49.1875 76.678259 49.255239 76 49.34375 L 76 24.1875 C 76 21.34513 73.654868 19 70.8125 19 L 11.1875 19 z M 11.1875 23 L 40.03125 23 C 40.460736 29.683107 46.140866 35 53 35 C 59.859134 35 65.539264 29.683107 65.96875 23 L 70.8125 23 C 71.485164 23 72 23.51484 72 24.1875 L 72 47.15625 L 65.40625 40.5625 A 2.0002 2.0002 0 0 0 62.71875 40.4375 L 52.9375 48.4375 L 33.21875 33.40625 A 2.0002 2.0002 0 0 0 31.6875 33 A 2.0002 2.0002 0 0 0 30.84375 33.34375 L 10 48 L 10 24.1875 C 10 23.51484 10.514836 23 11.1875 23 z M 44.03125 23 L 61.96875 23 C 61.555905 27.479063 57.734129 31 53 31 C 48.265871 31 44.444095 27.479063 44.03125 23 z M 78.0625 53.1875 C 84.675819 53.1875 90 58.49445 90 65.09375 C 90 71.69305 84.675819 77 78.0625 77 C 71.449185 77 66.125 71.69305 66.125 65.09375 C 66.125 58.49445 71.449185 53.1875 78.0625 53.1875 z M 77.78125 58.96875 A 2.0002 2.0002 0 0 0 76 61 L 76 63 L 74 63 A 2.0002 2.0002 0 0 0 73.8125 63 A 2.0021961 2.0021961 0 1 0 74 67 L 76 67 L 76 69 A 2.0002 2.0002 0 1 0 80 69 L 80 67 L 82 67 A 2.0002 2.0002 0 1 0 82 63 L 80 63 L 80 61 A 2.0002 2.0002 0 0 0 77.78125 58.96875 z M 57 65 C 55.895431 65 55 65.895431 55 67 C 55 68.104569 55.895431 69 57 69 C 58.104569 69 59 68.104569 59 67 C 59 65.895431 58.104569 65 57 65 z " transform="translate(0,952.36218)"/></g></svg>