<svg height='300px' width='300px'  fill="#ffffff" xmlns:dc="http://purl.org/dc/elements/1.1/" xmlns:cc="http://creativecommons.org/ns#" xmlns:rdf="http://www.w3.org/1999/02/22-rdf-syntax-ns#" xmlns:svg="http://www.w3.org/2000/svg" xmlns="http://www.w3.org/2000/svg" xmlns:sodipodi="http://sodipodi.sourceforge.net/DTD/sodipodi-0.dtd" xmlns:inkscape="http://www.inkscape.org/namespaces/inkscape" version="1.1" x="0px" y="0px" viewBox="0 0 100 100"><g transform="translate(0,-952.36218)"><path style="text-indent:0;text-transform:none;direction:ltr;block-progression:tb;baseline-shift:baseline;color:#000000;enable-background:accumulate;" d="m 211.22269,887.93961 a 0.99986467,0.99986467 0 0 0 -0.78106,0.99976 l 0,6.93587 -5.71741,-6.90462 a 0.99986467,0.99986467 0 1 0 -1.53089,1.28095 l 7.2483,8.74794 0,10.06013 -10.68499,0 -2.03077,-3.56166 a 0.99986467,0.99986467 0 0 0 -0.90604,-0.49989 0.99986467,0.99986467 0 0 0 -0.84355,1.49965 l 2.15575,3.74912 -5.1238,8.87291 -8.7167,-5.03006 -3.96781,-10.65375 a 0.99986467,0.99986467 0 0 0 -0.90604,-0.65609 0.99986467,0.99986467 0 0 0 -0.96852,1.34343 l 3.12426,8.40427 -5.99858,-3.46793 a 1.0075472,1.0075472 0 0 0 -0.99977,1.74959 l 6.02983,3.46793 -8.84167,1.46841 a 1.0118953,1.0118953 0 0 0 0.31243,1.99952 l 11.24735,-1.9058 8.68546,5.03007 -5.31125,9.24782 -4.34273,0 a 0.99986467,0.99986467 0 1 0 0,1.99953 l 4.56143,0 5.09255,8.87292 -8.68546,5.0301 -11.24735,-1.8746 a 0.99986467,0.99986467 0 1 0 -0.31243,1.9683 l 8.84167,1.4684 -6.02983,3.4679 a 1.0075515,1.0075515 0 1 0 0.99977,1.7496 l 5.99858,-3.4679 -3.12426,8.4042 a 0.99986467,0.99986467 0 1 0 1.87456,0.6874 l 3.96781,-10.6538 8.7167,-5.03 5.24877,9.0603 -2.28072,3.9054 a 1.0075472,1.0075472 0 0 0 1.74959,0.9997 l 2.24947,-3.9053 10.46629,0 0,10.0601 -7.2483,8.7792 a 0.99988416,0.99988416 0 1 0 1.53089,1.2497 l 5.71741,-6.9046 0,6.9359 a 0.99986467,0.99986467 0 1 0 1.99953,0 l 0,-6.9359 5.7174,6.9046 a 0.99988416,0.99988416 0 1 0 1.53089,-1.2497 l -7.24829,-8.7792 0,-10.0601 10.27883,0 2.24947,3.9053 a 0.99986467,0.99986467 0 1 0 1.71834,-0.9997 l -2.15574,-3.7491 5.34249,-9.2166 8.7167,5.03 3.96782,10.6538 a 0.99986467,0.99986467 0 1 0 1.87456,-0.6874 l -3.12427,-8.4042 5.99859,3.4679 a 1.0075515,1.0075515 0 0 0 0.99977,-1.7496 l -5.99859,-3.4679 8.84167,-1.4684 a 0.99986467,0.99986467 0 1 0 -0.34367,-1.9683 l -11.21611,1.8746 -8.7167,-5.0301 5.12379,-8.87292 4.31149,0 a 0.99986467,0.99986467 0 1 0 0,-1.99953 l -4.09279,0 -5.34249,-9.24782 8.7167,-5.03007 11.21611,1.9058 a 1.0144242,1.0144242 0 0 0 0.34367,-1.99952 l -8.84167,-1.46841 5.99859,-3.46793 a 1.0075472,1.0075472 0 0 0 -0.99977,-1.74959 l -5.99859,3.46793 3.12427,-8.40427 a 0.99986467,0.99986467 0 0 0 -0.8748,-1.34343 0.99986467,0.99986467 0 0 0 -0.99976,0.65609 l -3.96782,10.65375 -8.7167,5.03006 -5.21752,-9.02912 2.03077,-3.59291 a 0.99986467,0.99986467 0 0 0 -0.84355,-1.49965 0.99986467,0.99986467 0 0 0 -0.87479,0.49989 l -2.06202,3.56166 -10.46628,0 0,-10.06013 7.24829,-8.74794 a 0.99986467,0.99986467 0 1 0 -1.53089,-1.28095 l -5.7174,6.90462 0,-6.93587 a 0.99986467,0.99986467 0 0 0 -0.99977,-0.99976 0.99986467,0.99986467 0 0 0 -0.2187,0 z m -11.02865,23.11956 10.24759,0 0,18.15198 -15.68381,-9.06037 5.06131,-8.81043 a 0.99988166,0.99988166 0 0 0 0.37491,-0.28118 z m 12.24712,0 10.46628,0 5.24877,9.06037 -15.71505,9.09161 0,-18.15198 z m -18.6831,10.80995 15.6838,9.06037 -15.6838,9.06034 -5.24877,-9.06034 5.24877,-9.06037 z m 35.39791,0 5.21753,9.06037 -5.21753,9.06034 -15.71505,-9.06034 15.71505,-9.06037 z m -18.71434,10.77872 0,18.15199 -10.46629,0 -5.21752,-9.0916 15.68381,-9.06039 z m 1.99953,0 15.71505,9.09159 -5.24877,9.0604 -10.46628,0 0,-18.15199 z" fill="#ffffff" fill-opacity="1" fill-rule="evenodd" stroke="none" marker="none" visibility="visible" display="inline" overflow="visible"></path><path style="text-indent:0;text-transform:none;direction:ltr;block-progression:tb;baseline-shift:baseline;color:#000000;enable-background:accumulate;" d="m 49.998905,959.36218 c -12.57017,0 -22.80054,10.1622 -22.89781,22.7197 0,0.9203 0.45414,1.1803 1.15719,1.1803 l 7.1375,0 c 0.6856,0 1.165,-0.6957 1.165,-1.1491 0.07962,-7.3713 6.04846,-13.3009 13.43812,-13.3009 7.43948,0 13.45,6.0105 13.45,13.45 0,4.332 -1.26146,7.1284 -3.14406,9.1859 -1.8826,2.0575 -4.4575,3.3742 -7.12656,4.4387 -2.66907,1.0646 -5.40409,1.8572 -7.59438,3.0279 -1.09515,0.5853 -2.06748,1.27382 -2.78656,2.19502 -0.71909,0.9211 -1.14844,2.0856 -1.14844,3.4125 l 0,15.99 c 0,0.2617 0.10781,0.5219 0.29292,0.707 0.18512,0.1851 0.44529,0.2929 0.70708,0.293 l 7.35,0 c 0.26179,0 0.52196,-0.1079 0.70708,-0.293 0.18511,-0.1851 0.29289,-0.4453 0.29292,-0.707 l 0,-13.24 c 0,-0.4265 0.14252,-0.7067 0.60094,-1.1094 0.45842,-0.4028 1.23496,-0.8328 2.22125,-1.2635 1.97258,-0.8613 4.75228,-1.7486 7.5775,-3.1715 5.65044,-2.84592 11.50031,-8.09992 11.50031,-19.46562 0,-12.64 -10.26006,-22.9 -22.9,-22.9 z" fill="#ffffff" fill-opacity="1" fill-rule="evenodd" stroke="none" marker="none" visibility="visible" display="inline" overflow="visible"></path><path style="text-indent:0;text-transform:none;direction:ltr;block-progression:tb;baseline-shift:baseline;color:#000000;enable-background:accumulate;" d="m 46.328905,1031.6622 c -3.77076,0 -6.85,3.0792 -6.85,6.85 0,3.7707 3.07924,6.85 6.85,6.85 3.77076,0 6.85,-3.0793 6.85,-6.85 0,-3.7708 -3.07924,-6.85 -6.85,-6.85 z" fill="#ffffff" fill-opacity="1" fill-rule="evenodd" stroke="none" marker="none" visibility="visible" display="inline" overflow="visible"></path></g></svg>