<svg height='300px' width='300px'  fill="#ffffff" xmlns="http://www.w3.org/2000/svg" xmlns:xlink="http://www.w3.org/1999/xlink" version="1.1" x="0px" y="0px" viewBox="0 0 100 100" enable-background="new 0 0 100 100" xml:space="preserve"><path fill="#ffffff" d="M86,29v-3c0-4.962-4.038-9-9-9v-3c0-4.962-4.038-9-9-9H32c-4.962,0-9,4.038-9,9v3c-4.962,0-9,4.038-9,9v3  c-4.962,0-9,4.038-9,9v48c0,4.962,4.038,9,9,9h72c4.962,0,9-4.038,9-9V38C95,33.038,90.962,29,86,29z M29,14c0-1.654,1.346-3,3-3h36  c1.654,0,3,1.346,3,3v3H29V14z M20,26c0-1.654,1.346-3,3-3h54c1.654,0,3,1.346,3,3v3H20V26z M89,86c0,1.654-1.346,3-3,3H14  c-1.654,0-3-1.346-3-3V38c0-1.654,1.346-3,3-3h72c1.654,0,3,1.346,3,3V86z"></path></svg>