<svg height='300px' width='300px'  fill="#ffffff" xmlns="http://www.w3.org/2000/svg" xmlns:xlink="http://www.w3.org/1999/xlink" version="1.1" x="0px" y="0px" viewBox="0 0 24 24" style="enable-background:new 0 0 24 24;" xml:space="preserve"><style type="text/css">
	.st0{fill-rule:evenodd;clip-rule:evenodd;}
</style><path class="st0" d="M22,2h-3.4c5.5,3.7,7,11.1,3.4,16.6c-3.7,5.5-11.1,7-16.6,3.4c-5.5-3.7-7-11.1-3.4-16.6  c2-3.1,5.3-5,9-5.3V2l0.1,0C5.6,2.5,1.6,7.4,2,12.9c0.5,5.5,5.3,9.6,10.8,9.1c5.5-0.5,9.6-5.3,9.1-10.8c-0.3-3.3-2.1-6.2-5-7.8V7  c0,0.6-0.4,1-1,1s-1-0.4-1-1V1c0-0.6,0.4-1,1-1h6c0.6,0,1,0.4,1,1S22.6,2,22,2z"></path></svg>