<svg height='300px' width='300px'  fill="#ef5466" xmlns:dc="http://purl.org/dc/elements/1.1/" xmlns:cc="http://creativecommons.org/ns#" xmlns:rdf="http://www.w3.org/1999/02/22-rdf-syntax-ns#" xmlns:svg="http://www.w3.org/2000/svg" xmlns="http://www.w3.org/2000/svg" xmlns:sodipodi="http://sodipodi.sourceforge.net/DTD/sodipodi-0.dtd" xmlns:inkscape="http://www.inkscape.org/namespaces/inkscape" viewBox="0 0 16.933333 16.933333" version="1.1" x="0px" y="0px"><g transform="translate(0,-280.06669)"><path style="color:#000000;font-style:normal;font-variant:normal;font-weight:normal;font-stretch:normal;font-size:medium;line-height:normal;font-family:sans-serif;font-variant-ligatures:normal;font-variant-position:normal;font-variant-caps:normal;font-variant-numeric:normal;font-variant-alternates:normal;font-feature-settings:normal;text-indent:0;text-align:start;text-decoration:none;text-decoration-line:none;text-decoration-style:solid;text-decoration-color:#000000;letter-spacing:normal;word-spacing:normal;text-transform:none;writing-mode:lr-tb;direction:ltr;text-orientation:mixed;dominant-baseline:auto;baseline-shift:baseline;text-anchor:start;white-space:normal;shape-padding:0;clip-rule:nonzero;display:inline;overflow:visible;visibility:visible;opacity:1;isolation:auto;mix-blend-mode:normal;color-interpolation:sRGB;color-interpolation-filters:linearRGB;solid-color:#000000;solid-opacity:1;vector-effect:none;fill:#ef5466;fill-opacity:1;fill-rule:evenodd;stroke:none;stroke-width:3.99999976;stroke-linecap:round;stroke-linejoin:round;stroke-miterlimit:4;stroke-dasharray:none;stroke-dashoffset:30.23622131;stroke-opacity:1;paint-order:stroke fill markers;color-rendering:auto;image-rendering:auto;shape-rendering:auto;text-rendering:auto;enable-background:accumulate" d="M 32 2 C 15.455147 2 1.992934 15.454097 2 32 C 2.0034506 40.069934 5.2723741 47.796781 11.044922 53.431641 A 2.0001999 2.0001999 0 1 0 13.837891 50.568359 C 13.289722 50.03327 12.772472 49.472919 12.277344 48.896484 L 18.583984 42.589844 C 18.961034 42.212647 19.469924 42.001953 19.998047 42.001953 L 44.003906 42.001953 C 44.53191 42.001953 45.037447 42.211362 45.416016 42.589844 L 51.748047 48.919922 C 46.983291 54.479434 39.913121 58.001768 32 58 C 29.487229 57.999433 26.985923 57.627321 24.574219 56.904297 A 2.0002107 2.0002107 0 1 0 23.425781 60.736328 C 26.205149 61.569714 29.093363 61.99932 32 62 C 48.54539 62.003666 62 48.544844 62 32 C 62 25.631685 60.003487 19.71356 56.613281 14.855469 A 2.0001999 2.0001999 0 0 0 54.908203 13.976562 A 2.0001999 2.0001999 0 0 0 53.332031 17.144531 C 56.273108 21.359007 58 26.465902 58 32 C 58 37.012606 56.586013 41.687901 54.138672 45.654297 L 48.244141 39.761719 C 47.122369 38.64022 45.597434 38.001953 44.003906 38.001953 L 41.765625 38.001953 C 44.370223 35.455825 45.996094 31.911628 45.996094 27.998047 C 45.996094 20.289738 39.708298 14.001953 32 14.001953 C 24.291703 14.001953 17.996093 20.289738 17.996094 27.998047 C 17.996094 31.911565 19.624072 35.455834 22.230469 38.001953 L 19.998047 38.001953 C 18.404642 38.001953 16.878955 38.638632 15.755859 39.761719 L 9.8847656 45.632812 C 7.3717828 41.569776 6.002077 36.857637 6 32 C 5.9938394 17.617915 17.616907 6 32 6 C 37.534091 6 42.640974 7.7268915 46.855469 10.667969 A 2.00041 2.00041 0 1 0 49.144531 7.3867188 C 44.286447 3.9965203 38.368301 2 32 2 z M 32 18.003906 C 37.546537 18.003906 42.003906 22.451514 42.003906 27.998047 C 42.003906 33.544579 37.546537 38 32 38 C 26.453463 38 21.998047 33.544579 21.998047 27.998047 C 21.998047 22.451514 26.453463 18.003906 32 18.003906 z " transform="matrix(0.26458333,0,0,0.26458333,0,280.06669)"></path></g></svg>